<?xml version="1.0" standalone="no"?>
<!DOCTYPE svg PUBLIC "-//W3C//DTD SVG 20010904//EN"
 "http://www.w3.org/TR/2001/REC-SVG-20010904/DTD/svg10.dtd">
<svg version="1.0" xmlns="http://www.w3.org/2000/svg"
 width="1512.000000pt" height="186.000000pt" viewBox="0 0 1512.000000 186.000000"
 preserveAspectRatio="xMidYMid meet">

<g transform="translate(0.000000,186.000000) scale(0.100000,-0.100000)"
fill="#000000" stroke="none">
<path d="M3026 1785 c-4 -44 -13 -107 -20 -140 -12 -55 -14 -58 -23 -35 -9 22
-11 19 -17 -30 -3 -30 -13 -138 -21 -239 -8 -101 -17 -186 -19 -189 -3 -2 -8
13 -11 34 -13 78 -14 66 -8 -88 l5 -156 -27 -36 -27 -36 -21 26 c-20 25 -20
31 -8 142 6 63 10 117 8 119 -3 2 -24 -50 -48 -117 -32 -90 -47 -120 -60 -120
-10 0 -20 6 -22 13 -4 10 -6 9 -6 0 -1 -7 -12 -13 -25 -13 -20 0 -26 9 -44 68
-11 37 -36 117 -55 177 l-35 110 -1 -165 c-1 -93 -5 -160 -10 -155 -4 6 -16
31 -26 58 -26 69 -29 51 -7 -36 16 -63 18 -82 8 -120 -9 -36 -14 -42 -24 -31
-6 7 -12 22 -12 32 0 32 -28 20 -46 -20 -9 -21 -20 -38 -24 -38 -7 0 -67 187
-81 250 -4 19 -14 58 -22 85 -18 61 -22 27 -7 -57 8 -42 7 -71 -5 -127 -15
-71 -38 -121 -48 -104 -3 4 -11 75 -18 157 -14 166 -19 166 -44 6 -25 -168
-19 -155 -76 -169 -28 -7 -53 -10 -56 -7 -3 3 -10 54 -14 113 -5 60 -11 125
-14 145 -3 22 -1 40 6 44 8 4 7 9 -2 15 -23 14 -29 10 -29 -17 0 -18 -19 -44
-72 -95 -40 -38 -76 -69 -79 -69 -3 0 -13 16 -23 36 -23 49 -30 38 -11 -16 12
-33 12 -46 3 -57 -23 -28 -31 8 -36 162 -3 86 -6 154 -8 152 -2 -2 -13 -48
-24 -103 -11 -54 -23 -105 -25 -113 -10 -25 -37 27 -50 93 l-13 61 -1 -98 c-1
-64 -5 -103 -13 -111 -19 -18 -78 -40 -86 -31 -4 4 -6 104 -6 223 1 120 0 210
-1 202 -2 -8 -9 -61 -15 -118 -7 -56 -16 -104 -20 -107 -4 -2 -8 -28 -9 -57
-1 -29 -8 -80 -14 -112 -11 -52 -16 -61 -40 -67 -22 -6 -29 -4 -33 9 -15 51
-83 168 -111 190 -26 21 -31 31 -27 56 l5 31 -19 -35 c-10 -19 -29 -72 -42
-118 -13 -45 -24 -81 -26 -79 -10 9 -19 118 -12 131 6 10 5 16 -2 16 -5 0 -10
10 -11 23 0 15 -4 9 -12 -17 -7 -22 -17 -41 -23 -43 -12 -4 -24 80 -25 186 0
36 -3 60 -6 53 -2 -6 -9 -10 -14 -6 -5 3 -9 -1 -9 -8 -1 -47 -40 -310 -49
-325 -14 -24 -14 95 0 156 7 30 7 47 -1 55 -7 7 -10 2 -10 -14 0 -31 -41 -150
-52 -150 -4 0 -8 -10 -8 -22 -1 -13 -7 -36 -14 -53 -15 -33 -19 -28 -33 40 -7
36 -8 33 -11 -37 -2 -58 -6 -78 -16 -78 -30 0 -28 88 3 215 29 118 103 391
117 430 l6 20 -15 -20 c-28 -38 -105 -231 -128 -322 -23 -89 -38 -110 -40 -55
-2 27 -2 27 -6 2 -12 -76 -25 -130 -31 -130 -4 0 -20 23 -35 51 -42 74 -44 52
-3 -38 28 -64 34 -86 29 -120 -3 -24 -9 -40 -14 -37 -5 3 -9 -14 -9 -38 -1
-24 -7 -56 -14 -73 l-13 -30 -7 58 c-4 31 -5 72 -1 90 5 24 4 28 -4 17 -6 -8
-11 -24 -11 -35 0 -11 -4 -25 -8 -32 -4 -6 -6 57 -5 140 l2 152 -15 -64 c-8
-36 -16 -67 -19 -69 -16 -16 -2 132 20 208 34 121 31 128 -17 37 -22 -43 -42
-76 -44 -74 -2 2 -15 71 -29 153 -38 226 -46 235 -40 47 3 -90 10 -188 16
-219 11 -57 5 -109 -10 -100 -5 3 -11 20 -14 38 -4 18 -16 65 -27 103 l-20 70
3 -170 c2 -98 0 -181 -6 -195 -9 -24 -10 -24 -16 -5 -12 38 -53 110 -79 137
l-25 28 57 126 c32 69 56 128 53 131 -3 2 -10 -5 -16 -16 -7 -11 -38 -62 -71
-113 l-60 -92 5 129 c5 140 4 140 -41 -9 -32 -105 -39 -99 -50 51 -10 144 -19
164 -28 63 -4 -47 -12 -107 -18 -134 -10 -49 -11 -49 -25 -25 l-14 24 6 -25
c4 -14 9 -33 12 -43 7 -26 -6 -107 -18 -107 -5 0 -9 39 -9 86 0 54 -4 83 -10
79 -6 -4 -10 9 -11 32 l-1 38 -10 -35 c-5 -19 -14 -44 -18 -55 -8 -18 -9 -17
-9 7 -2 53 -21 40 -22 -14 0 -47 -2 -50 -11 -25 -5 15 -13 27 -18 27 -5 0 -14
26 -21 58 l-13 57 -7 -40 c-4 -22 -8 -304 -8 -627 l-1 -588 7560 0 7560 0 -1
503 c-1 276 -4 492 -6 480 -7 -37 -20 -26 -31 25 l-10 47 -1 -47 -1 -47 -52
-3 c-52 -3 -54 -4 -75 -48 l-22 -45 -1 140 c-1 89 -5 133 -10 120 -5 -11 -25
-94 -45 -185 -20 -91 -40 -169 -45 -173 -4 -5 -18 9 -30 30 -13 21 -46 69 -73
107 l-49 69 16 34 c23 49 19 64 -6 24 l-22 -34 -29 34 -29 34 21 -43 21 -42
-22 -30 c-12 -16 -23 -28 -26 -26 -2 2 -7 35 -11 73 -7 54 -9 59 -10 25 0 -26
-5 -41 -11 -37 -6 4 -7 -11 -4 -39 4 -29 3 -46 -4 -46 -6 0 -13 37 -17 85 -4
47 -10 84 -12 81 -3 -3 -6 -67 -8 -143 l-2 -138 -47 -85 c-54 -98 -66 -113
-66 -83 0 12 -3 29 -7 39 -5 14 -9 9 -19 -22 -8 -26 -12 -32 -13 -17 -1 12 -5
23 -10 25 -12 4 -58 203 -78 337 -9 61 -20 108 -23 104 -9 -10 -27 -119 -35
-203 -9 -96 -14 -117 -26 -99 -5 7 -18 41 -29 74 l-20 61 45 158 c25 87 44
160 43 162 -2 1 -27 -44 -57 -102 -30 -57 -57 -104 -61 -104 -4 0 -14 21 -21
48 l-13 47 -7 -102 c-4 -61 -12 -112 -21 -125 -8 -13 -24 -50 -37 -84 -20 -54
-88 -154 -112 -162 -5 -2 -9 -9 -9 -17 0 -7 -7 -18 -15 -25 -12 -10 -15 -10
-15 1 0 11 -2 11 -10 -1 -20 -31 -10 21 20 107 35 99 37 109 11 67 -34 -56
-45 -54 -37 7 4 30 9 86 11 124 5 69 5 68 -30 -64 -19 -74 -36 -136 -38 -138
-3 -2 -10 23 -16 56 -7 33 -21 86 -31 117 -11 32 -20 72 -20 91 0 21 -5 33
-14 33 -8 0 -21 19 -30 41 -9 23 -19 40 -21 37 -2 -2 6 -45 17 -96 20 -85 21
-100 9 -170 -7 -42 -16 -127 -21 -189 -11 -169 -17 -163 -45 47 -10 69 -19
127 -21 129 -2 2 -2 -52 2 -120 5 -121 5 -123 -11 -89 -15 30 -16 66 -13 258
4 222 -1 254 -22 131 -6 -35 -19 -95 -29 -134 -20 -76 -18 -78 -43 40 l-12 60
-6 -72 c-4 -40 -9 -75 -12 -78 -3 -3 -16 18 -28 47 l-23 53 -9 -39 c-10 -49
-14 -52 -32 -36 -11 8 -31 10 -64 5 -45 -6 -51 -10 -80 -58 -28 -46 -32 -49
-32 -26 0 15 7 43 15 62 8 20 15 44 14 54 0 11 -3 13 -6 6 -2 -7 -11 -13 -19
-13 -10 0 -14 14 -14 53 0 69 -10 128 -21 121 -5 -3 -9 -39 -9 -80 0 -73 -9
-91 -29 -56 -8 13 -9 10 -5 -15 4 -18 3 -40 -1 -50 -7 -15 -9 -13 -15 12 -4
17 -8 48 -9 70 0 31 2 36 10 25 7 -11 8 -5 2 20 -4 19 -8 54 -8 78 0 37 -2 40
-13 25 -7 -10 -11 -27 -8 -38 6 -23 -22 -152 -34 -160 -18 -11 -21 41 -4 80
15 37 15 38 -1 25 -9 -7 -27 -34 -40 -59 -50 -97 -48 -98 -86 55 l-34 139 -5
-97 c-3 -53 -7 -99 -11 -102 -3 -3 -18 -2 -35 3 -27 7 -29 11 -27 52 2 40 1
41 -7 14 -4 -16 -24 -77 -43 -135 l-34 -105 -8 59 c-5 39 -4 65 3 77 7 11 8
19 1 21 -5 2 -21 74 -34 161 -38 245 -56 303 -70 230 -3 -21 -23 -87 -43 -148
l-37 -110 -5 50 c-8 68 -17 39 -24 -74 -6 -117 -21 -137 -31 -44 -5 49 -10 62
-16 48 -4 -11 -8 -32 -8 -47 -1 -16 -6 -28 -12 -28 -7 0 -8 -18 -4 -55 4 -30
5 -55 2 -55 -2 0 -17 51 -32 112 -15 62 -34 124 -41 138 -12 22 -13 14 -14
-75 -1 -99 -1 -100 -15 -60 -8 22 -15 69 -15 105 0 88 -15 65 -30 -50 -7 -52
-17 -106 -20 -120 l-7 -25 -6 25 c-3 14 -11 72 -18 130 -7 58 -14 100 -16 95
-1 -6 -6 -51 -11 -100 l-7 -90 -24 192 c-13 106 -28 190 -33 187 -4 -3 -8 -65
-8 -138 0 -94 -5 -148 -16 -187 l-17 -54 -15 35 c-17 39 -20 93 -9 160 6 37 5
41 -5 22 -11 -23 -28 -30 -28 -12 0 6 -4 10 -9 10 -4 0 -6 -12 -4 -27 4 -27 4
-27 -11 -9 -18 23 -19 17 -7 -37 10 -42 -14 -136 -30 -120 -4 4 -13 80 -18
167 -6 88 -13 161 -15 163 -2 2 -9 -47 -16 -109 -13 -113 -29 -174 -30 -113 0
17 -5 37 -10 45 -7 11 -10 5 -10 -25 0 -22 -3 -56 -6 -75 l-6 -36 -76 13 c-81
14 -87 17 -95 48 -3 15 -5 12 -7 -10 -1 -16 -3 -41 -4 -55 -1 -14 -3 -43 -5
-65 -2 -39 -3 -37 -29 42 -16 45 -38 96 -50 112 -13 18 -22 45 -22 66 0 20 -4
34 -9 30 -11 -6 -11 -8 -46 255 -15 107 -28 197 -30 199 -3 2 -6 -2 -9 -10 -8
-27 -48 -345 -54 -422 l-5 -78 -31 3 c-31 3 -31 3 -53 108 -24 113 -48 251
-59 339 -4 35 -9 49 -14 40 -15 -27 -33 -334 -27 -467 5 -116 4 -132 -8 -122
-14 12 -95 3 -137 -14 -14 -6 -17 3 -23 71 -11 132 -22 211 -24 173 -1 -19 -6
-42 -11 -50 -7 -11 -8 -2 -4 28 4 26 3 42 -4 42 -5 0 -13 17 -17 37 -4 21 -10
43 -15 48 -5 6 -10 24 -12 40 -2 17 -9 -22 -17 -85 -15 -138 -27 -194 -40
-198 -5 -2 -8 -9 -6 -15 7 -18 -13 -45 -23 -30 -4 6 -20 16 -35 22 -24 9 -27
16 -28 58 l-2 48 -10 -47 c-12 -56 -22 -61 -31 -17 -14 69 -6 87 37 80 4 0 7
3 7 9 0 10 -35 15 -79 11 -13 -1 -28 4 -32 11 -7 10 -9 9 -9 -4 0 -13 -8 -18
-25 -18 -35 0 -95 -26 -95 -41 0 -8 -3 -9 -9 -4 -8 8 -24 81 -67 304 -8 38
-15 18 -18 -54 -2 -37 -8 -70 -14 -74 -7 -4 -16 -31 -22 -60 -17 -91 -32 -130
-56 -146 l-23 -15 -3 112 c-3 111 -3 112 -15 63 -6 -27 -17 -90 -23 -140 -20
-154 -16 -151 -67 -50 -46 91 -64 168 -89 380 l-8 70 -11 -120 -10 -120 -38
65 -38 65 7 -45 c3 -25 14 -76 24 -115 12 -47 15 -77 9 -93 -5 -13 -9 -45 -9
-72 0 -45 -3 -51 -30 -65 -35 -18 -49 -13 -51 18 -1 12 -5 4 -8 -17 -9 -59
-27 -55 -40 11 -6 32 -21 94 -33 138 -27 99 -35 82 -39 -85 l-3 -115 -5 80
c-7 90 -12 89 -31 -5 -7 -36 -16 -69 -20 -73 -4 -5 -24 38 -44 95 -50 140 -56
152 -50 103 3 -22 -1 -60 -10 -85 l-14 -45 -2 55 c0 30 -4 73 -8 95 -7 37 -9
34 -19 -45 -13 -105 -34 -160 -62 -160 -17 0 -20 8 -23 48 l-3 47 -13 -57 c-9
-40 -19 -59 -32 -63 -11 -3 -35 -28 -55 -56 -41 -55 -49 -60 -43 -24 7 35 -1
31 -18 -10 -8 -19 -19 -35 -24 -35 -6 0 -10 -12 -10 -26 0 -20 -4 -25 -16 -20
-9 3 -32 6 -52 6 l-37 0 33 21 c41 27 36 34 -11 14 -34 -14 -36 -14 -42 5 -3
10 -4 93 -1 182 l5 163 -17 -82 c-17 -81 -31 -114 -33 -77 -1 10 -5 3 -9 -16
-7 -35 -7 -34 -58 70 -46 95 -68 124 -42 55 10 -26 0 -231 -17 -330 l-6 -40
-9 30 c-5 17 -15 80 -24 140 -43 313 -57 324 -79 63 -4 -43 -13 -84 -21 -95
-14 -16 -15 -5 -10 102 3 89 12 152 35 244 17 68 30 126 27 128 -6 6 -129
-288 -161 -385 -15 -46 -30 -81 -33 -78 -3 4 -9 36 -12 74 -7 62 -7 59 -8 -43
-1 -83 -8 -137 -29 -222 -16 -62 -31 -113 -35 -113 -5 0 -7 3 -6 7 0 5 -1 15
-5 23 -3 8 -8 29 -11 45 -3 17 -9 53 -14 80 -6 28 -9 114 -8 192 0 77 -2 139
-5 137 -8 -4 -18 56 -20 111 0 22 -9 -18 -20 -90 -20 -142 -31 -188 -24 -110
l4 50 -13 -35 c-11 -28 -14 -31 -18 -15 -2 11 -10 -22 -17 -72 -7 -51 -15 -93
-18 -93 -3 0 -3 21 0 47 6 46 6 46 -6 18 -16 -35 -22 -28 -54 60 l-21 60 5
-85 c3 -57 -1 -106 -11 -150 l-15 -65 6 59 c4 42 3 57 -6 52 -7 -4 -10 0 -9
11 0 10 0 50 -2 88 l-2 70 -10 -50 c-11 -59 -24 -78 -26 -38 -1 15 -5 51 -10
78 l-8 50 -7 -53 c-4 -29 -11 -50 -16 -48 -5 3 -14 32 -20 65 l-12 60 66 160
c36 88 65 166 65 173 -1 7 -33 -50 -72 -126 -56 -111 -73 -136 -79 -120 -13
34 -10 63 16 127 22 54 22 59 5 37 -11 -14 -22 -33 -26 -42 -8 -25 -25 -22
-32 4 -5 21 -6 21 -13 2 -4 -10 -8 -37 -8 -58 -1 -67 -20 -27 -27 57 -4 43 -8
76 -10 75 -1 -2 -9 -52 -18 -112 -9 -63 -24 -122 -35 -140 -10 -17 -24 -49
-31 -71 -21 -68 -25 -63 -30 45 l-5 105 -17 -85 c-10 -47 -23 -102 -29 -124
l-11 -38 -19 21 c-13 14 -19 35 -19 66 0 27 -5 45 -11 45 -8 0 -10 -14 -6 -40
3 -22 2 -40 -1 -40 -4 0 -28 18 -54 41 l-48 41 -1 86 -1 87 -16 -77 -15 -78
-34 0 c-31 0 -33 2 -35 38 l-1 37 -4 -35 c-3 -20 -16 -48 -32 -65 -35 -37 -51
-67 -51 -97 0 -18 -2 -20 -10 -8 -16 25 -11 67 14 128 13 31 26 80 30 107 l6
50 -30 -59 c-16 -33 -36 -66 -45 -75 -13 -14 -15 -13 -16 4 -1 26 -15 110 -28
160 -9 36 -9 33 -5 -22 4 -40 2 -63 -4 -63 -14 0 -18 27 -37 220 -26 258 -30
260 -45 27 -7 -114 -14 -206 -16 -204 -2 2 -10 41 -18 88 l-14 84 -1 -187 c-1
-103 -5 -197 -11 -210 -5 -13 -21 -36 -36 -53 l-26 -30 6 123 c3 67 4 122 2
122 -2 0 -18 -60 -36 -132 -18 -73 -34 -135 -37 -138 -2 -2 -3 12 -1 33 1 20
-1 39 -5 43 -7 7 -27 -37 -28 -64 0 -11 -3 -9 -10 7 -5 14 -7 45 -4 70 l5 46
-15 -30 c-8 -16 -14 -36 -15 -42 0 -7 -5 -13 -11 -13 -9 0 -11 71 -7 273 3
149 2 262 -2 251 -5 -12 -23 -98 -40 -190 -17 -93 -34 -184 -38 -202 l-7 -33
-67 95 -68 95 30 113 c65 244 81 310 77 315 -3 2 -44 -67 -92 -154 -48 -87
-89 -160 -91 -162 -2 -2 -11 2 -19 9 -14 12 -15 11 -5 -11 10 -22 1 -45 -74
-198 -47 -95 -87 -178 -90 -184 -7 -19 -26 15 -21 38 2 11 6 56 9 100 l5 80
-18 -96 c-27 -142 -24 -135 -83 -143 -61 -8 -102 -35 -126 -82 l-17 -34 -35
181 c-18 99 -36 182 -39 184 -3 2 -5 -88 -5 -198 1 -119 -1 -170 -5 -125 -3
42 -9 79 -13 83 -4 4 -4 -17 -1 -48 3 -33 0 -69 -8 -93 -12 -37 -13 -38 -20
-14 l-7 25 -1 -24 c-1 -13 -3 -22 -6 -19 -8 8 13 300 31 420 25 175 15 194
-25 45 -18 -70 -37 -130 -42 -133 -5 -3 -10 16 -10 43 -2 47 -2 47 -9 13 l-7
-35 -2 39 c-2 65 -17 30 -45 -104 -15 -68 -29 -126 -31 -129 -3 -2 -5 11 -5
30 0 21 -3 29 -8 21 -6 -9 -21 -11 -50 -6 -50 8 -55 21 -9 27 l32 4 -32 1 -33
2 -1 78 -1 77 -14 -64 c-8 -36 -16 -67 -19 -69 -3 -3 -5 48 -6 114 -1 136 -11
225 -22 184 -4 -14 -15 -87 -26 -164 -19 -138 -26 -156 -63 -156 -19 0 -24 19
-34 135 -4 44 -10 72 -12 62 -2 -9 -8 -15 -13 -12 -5 4 -10 -21 -10 -57 -2
-106 -9 -122 -49 -126 -23 -2 -51 -17 -82 -43 -30 -25 -48 -35 -51 -26 -3 6
-6 2 -6 -9 -1 -12 -11 -34 -23 -49 l-21 -27 -13 23 c-19 34 -17 104 6 249 11
69 20 154 19 190 l0 65 -29 -85 c-16 -47 -44 -128 -61 -180 -17 -52 -34 -99
-37 -104 -11 -18 -21 30 -22 109 -3 130 -16 145 -24 28 -5 -57 -12 -103 -16
-103 -5 0 -50 39 -99 88 l-91 87 -1 55 -1 55 -9 -40 c-4 -22 -8 -74 -8 -115
-1 -114 -13 -270 -21 -270 -9 0 -30 145 -30 212 0 55 10 165 31 352 5 49 8 90
6 92 -2 2 -25 -85 -52 -194 -26 -108 -50 -201 -54 -207 -3 -5 -8 15 -11 45 -5
54 -6 53 -19 -49 -18 -136 -32 -181 -26 -81 l5 75 -18 -40 c-11 -22 -25 -64
-32 -93 -10 -42 -15 -50 -26 -41 -7 6 -17 8 -23 5 -17 -11 -41 -99 -41 -153 0
-29 -4 -53 -10 -53 -15 0 -12 96 5 137 8 20 13 39 10 42 -3 3 -8 -5 -12 -17
-10 -38 -23 -24 -23 26 0 26 -3 57 -6 70 -13 48 -19 17 -16 -87 2 -65 -1 -117
-7 -128 -9 -16 -10 -15 -11 7 0 14 -5 32 -11 40 -7 11 -8 3 -4 -27 7 -44 -3
-55 -25 -28 -11 13 -14 13 -27 0 -17 -17 -63 -20 -63 -4 0 5 -5 7 -12 3 -8 -5
-10 21 -6 100 3 59 4 105 2 103 -2 -2 -14 -51 -27 -108 -17 -77 -27 -105 -39
-107 -13 -2 -18 8 -24 45 -8 46 -8 47 -16 18 -16 -63 3 116 22 210 11 54 18
100 15 103 -3 3 -5 0 -5 -6 0 -25 -85 -187 -88 -167 -1 11 -6 61 -10 110 -8
83 -9 87 -17 50 -4 -22 -12 -51 -17 -64 l-9 -24 -29 28 c-47 45 -48 23 -2 -71
11 -22 13 -42 7 -70 l-8 -39 -7 42 c-11 71 -20 61 -21 -23 -1 -132 -14 -130
-29 4 -7 68 -16 125 -20 127 -4 3 -11 -44 -15 -103 -4 -59 -14 -125 -24 -147
l-16 -40 -5 48 c-7 69 -24 58 -31 -20 -3 -38 -6 -62 -7 -55 -1 6 -5 11 -9 10
-18 -4 -62 26 -67 46 -8 29 -6 132 3 189 5 29 4 44 -1 39 -5 -5 -13 -29 -16
-53 l-7 -44 -6 60 c-4 33 -7 89 -8 124 -1 91 -15 66 -36 -64 -9 -60 -23 -123
-29 -140 l-13 -30 -21 57 c-12 32 -27 99 -34 150 -10 71 -14 86 -19 63 -6 -29
-6 -29 -19 18 -19 72 -23 49 -5 -31 9 -39 15 -90 13 -114 -3 -40 -6 -34 -46
91 -24 73 -45 131 -47 130 -1 -2 1 -44 5 -94 12 -131 32 -486 28 -490 -2 -2
-26 15 -52 37 l-49 42 6 120 5 121 -19 -50 c-10 -27 -19 -59 -19 -70 0 -11 -5
-38 -12 -60 l-12 -40 -7 40 c-4 22 -9 69 -10 105 -2 80 -7 63 -17 -55 l-7 -89
-20 29 c-11 17 -20 46 -21 65 0 19 -2 78 -3 130 l-3 95 -28 -113 c-15 -62 -30
-115 -32 -118 -3 -2 -12 28 -21 68 l-15 73 -2 -75 c-2 -61 -4 -69 -11 -45 -4
17 -12 62 -16 100 -4 39 -8 59 -10 45 -2 -14 -6 -45 -9 -69 -3 -27 -9 -40 -15
-34 -15 15 -50 227 -58 343 -6 89 -8 98 -13 60 -4 -25 -10 -103 -13 -175 -3
-71 -8 -148 -12 -170 -6 -36 -7 -38 -14 -15 -15 54 -3 406 17 466 21 66 -65
-105 -112 -223 -32 -79 -60 -143 -64 -143 -3 0 -17 20 -32 45 -28 46 -41 105
-54 250 -4 44 -9 74 -12 66 -3 -10 -9 -7 -18 10 -12 21 -13 9 -14 -101 -2
-127 -20 -224 -32 -170 -3 14 -3 165 1 335 4 171 6 311 5 313 -1 2 -21 -75
-44 -170 -23 -95 -45 -182 -49 -193 -7 -18 -8 -17 -14 5 -3 14 -15 102 -27
195 -27 212 -35 235 -44 130z m7471 -597 c-2 -13 -4 -3 -4 22 0 25 2 35 4 23
2 -13 2 -33 0 -45z m-5134 -25 c80 -126 157 -265 157 -284 0 -31 -11 -69 -19
-69 -3 0 -15 19 -26 42 -17 35 -29 46 -65 58 -36 13 -46 21 -51 45 -6 29 -7
29 -9 5 -4 -31 -17 94 -19 173 0 31 2 57 7 57 4 0 15 -12 25 -27z m1807 -253
c0 -32 0 -32 -42 -25 -34 6 -40 5 -35 -7 3 -8 1 -21 -4 -29 -6 -10 -9 -4 -10
21 -1 31 -3 29 -14 -20 -11 -49 -12 -52 -17 -25 -4 25 -5 23 -7 -12 -1 -46 -7
-51 -36 -29 -14 10 -19 27 -19 62 -1 46 1 49 27 52 33 4 26 22 -9 22 -13 0
-24 6 -24 13 0 13 47 212 56 237 8 22 134 -222 134 -260z m3327 218 c-3 -8 -6
-5 -6 6 -1 11 2 17 5 13 3 -3 4 -12 1 -19z m261 -27 c-2 -37 -7 -51 -20 -54
-9 -3 -19 -2 -22 1 -12 11 -6 90 7 95 33 14 38 7 35 -42z m-3121 -18 c-3 -10
-5 -2 -5 17 0 19 2 27 5 18 2 -10 2 -26 0 -35z m-6321 -5 c14 -26 64 -171 64
-183 0 -11 -29 -4 -34 8 -3 6 -4 0 -1 -14 3 -17 -2 -34 -15 -49 -18 -21 -47
-77 -77 -150 -9 -22 -11 -18 -22 38 -10 53 -9 81 9 204 11 79 23 153 25 165 7
29 31 20 51 -19z m8828 -3 c5 -22 4 -26 -4 -15 -5 8 -10 24 -10 34 0 26 6 18
14 -19z m-355 -35 c1 -13 0 -13 -9 0 -5 8 -9 24 -9 35 l0 20 9 -20 c5 -11 9
-27 9 -35z m-7834 -97 c-25 -112 -31 -132 -38 -122 -25 36 -56 112 -51 121 24
39 109 138 112 129 2 -5 -9 -63 -23 -128z m5909 119 c2 -4 -3 -41 -13 -82
l-17 -75 -7 55 c-11 92 -9 110 12 110 11 0 22 -3 25 -8z m326 -57 c-7 -34 -15
-54 -21 -48 -5 5 -3 30 7 62 20 68 29 59 14 -14z m-7049 28 c-12 -20 -14 -14
-5 12 4 9 9 14 11 11 3 -2 0 -13 -6 -23z m10279 -10 c0 -16 -3 -45 -7 -67 l-6
-38 -19 48 c-33 87 -33 84 1 84 27 0 31 -3 31 -27z m-10260 -73 c0 -40 -4 -70
-10 -70 -11 0 -14 98 -4 124 11 29 14 17 14 -54z m6849 -4 c7 -9 11 -40 9 -82
l-3 -68 -34 -9 c-19 -5 -37 -5 -42 0 -5 5 -12 61 -16 123 l-6 114 40 -31 c22
-18 45 -39 52 -47z m1208 -108 c4 -36 2 -58 -4 -58 -9 0 -15 32 -39 205 -2 16
5 3 17 -30 11 -33 22 -86 26 -117z m-3307 149 c0 -8 -13 -26 -30 -40 l-30 -27
0 29 c0 18 7 34 18 40 24 14 42 13 42 -2z m113 6 c-7 -2 -21 -2 -30 0 -10 3
-4 5 12 5 17 0 24 -2 18 -5z m-5628 -64 c15 -34 30 -79 32 -100 5 -36 4 -39
-19 -39 -13 0 -30 -6 -36 -12 -22 -22 -32 11 -32 108 0 127 13 137 55 43z
m592 4 c-3 -10 -5 -2 -5 17 0 19 2 27 5 18 2 -10 2 -26 0 -35z m4826 -30 c-37
-149 -34 -139 -49 -118 -8 10 -14 38 -14 60 0 34 6 49 35 78 20 21 38 37 40
37 1 0 -4 -26 -12 -57z m423 30 c-2 -16 -8 -54 -11 -85 -4 -32 -11 -58 -16
-58 -5 0 -9 -7 -9 -16 0 -14 -3 -14 -15 -4 -18 15 -18 8 -2 -50 7 -25 10 -63
7 -85 -5 -36 -7 -32 -19 47 -7 48 -10 92 -6 98 4 6 2 16 -3 23 -11 13 -23 143
-14 151 3 4 25 6 49 6 43 0 44 -1 39 -27z m3408 5 c-13 -46 -23 -55 -24 -22 0
31 6 44 22 44 5 0 6 -10 2 -22z m2152 0 l64 -11 0 -133 c0 -120 -2 -136 -22
-168 -19 -29 -29 -35 -57 -36 -31 0 -33 -1 -17 -13 15 -11 16 -17 5 -40 -10
-22 -14 -25 -21 -13 -6 11 -48 374 -48 418 0 11 21 10 96 -4z m-10143 -25 c7
-35 2 -39 -55 -47 l-48 -7 0 30 c0 23 6 31 28 39 50 19 69 15 75 -15z m13050
-73 c40 -98 53 -150 38 -150 -5 0 -13 4 -16 10 -3 5 -20 13 -37 18 -27 7 -33
15 -53 77 l-23 70 20 39 c11 21 23 34 28 30 5 -5 24 -47 43 -94z m351 61 c14
-26 14 -35 0 -83 -19 -64 -34 -83 -34 -44 0 15 -7 34 -15 42 -13 14 -15 1 -16
-113 -1 -70 -5 -139 -9 -153 l-8 -25 -2 25 c-1 21 -3 22 -9 7 -6 -18 -7 -18
-23 0 -10 12 -17 48 -21 113 l-6 96 37 55 c53 79 76 108 84 109 4 0 14 -13 22
-29z m-14037 -13 c-3 -7 -5 -2 -5 12 0 14 2 19 5 13 2 -7 2 -19 0 -25z m11819
-23 c14 -21 14 -38 4 -137 -14 -133 -19 -154 -30 -118 -6 19 -8 13 -9 -27 -1
-29 -5 -53 -10 -53 -5 0 -17 20 -26 44 -15 39 -16 57 -6 153 20 180 21 184 42
172 11 -5 26 -21 35 -34z m-10996 -37 c0 -64 -2 -70 -13 -53 -23 33 -28 80
-11 104 8 11 17 21 20 21 2 0 4 -33 4 -72z m4181 -5 c-8 -15 -10 -10 -11 23 0
22 3 44 8 48 11 12 14 -52 3 -71z m3549 -4 c-11 -45 -14 -48 -26 -32 -12 17
-13 16 -14 -8 0 -36 -28 -46 -36 -13 -7 26 21 69 37 58 5 -3 9 3 9 12 0 22 33
60 38 44 2 -6 -2 -33 -8 -61z m-8101 39 c0 -13 -4 -32 -8 -43 -8 -19 -9 -18
-21 7 -15 31 -8 58 15 58 9 0 15 -9 14 -22z m11970 -107 c1 -7 -8 -2 -19 12
-13 16 -20 39 -19 64 l1 38 18 -50 c10 -27 19 -56 19 -64z m-4909 30 c-7 -11
-9 -3 -9 29 1 42 1 43 9 16 6 -17 5 -36 0 -45z m-6083 12 c-3 -10 -5 -2 -5 17
0 19 2 27 5 18 2 -10 2 -26 0 -35z m-580 5 c-3 -8 -6 -5 -6 6 -1 11 2 17 5 13
3 -3 4 -12 1 -19z m11263 -22 c0 -18 -7 -41 -15 -52 -13 -17 -14 -15 -15 32 0
28 3 54 6 57 13 13 24 -5 24 -37z m212 17 c23 -22 28 -35 27 -72 0 -25 -4 -55
-9 -66 l-8 -20 -8 20 c-4 11 -20 36 -34 56 l-26 36 4 -64 c4 -64 -8 -98 -27
-78 -11 12 2 148 18 188 13 34 27 34 63 0z m-8612 -45 l0 -33 -14 25 c-13 26
-12 40 5 40 5 0 9 -15 9 -32z m108 16 c28 -19 28 -38 0 -53 l-23 -12 23 5 c19
4 22 0 22 -26 0 -16 -4 -27 -9 -24 -5 3 -12 -2 -16 -12 -10 -27 -21 2 -30 76
-7 65 -3 72 33 46z m10241 -52 c-1 -31 -4 -68 -8 -82 -13 -46 -23 7 -15 82 8
81 24 81 23 0z m-10283 -34 c9 -88 3 -118 -17 -87 -12 18 -12 179 0 179 5 0
13 -42 17 -92z m3214 43 c0 -59 -14 -73 -29 -29 -19 53 -13 74 22 77 4 1 7
-21 7 -48z m1470 17 c0 -13 -4 -29 -9 -37 -13 -20 -24 4 -17 35 8 30 26 32 26
2z m4272 -174 c-22 -46 -32 -15 -31 94 l1 107 20 -88 c17 -70 19 -92 10 -113z
m-312 80 c-5 -20 -11 -38 -15 -42 -12 -12 -25 24 -25 72 l0 49 24 -22 c20 -19
22 -27 16 -57z m-121 -14 c0 -10 -3 -8 -9 5 -12 27 -12 43 0 25 5 -8 9 -22 9
-30z m1427 26 c18 -14 18 -15 -5 -63 l-24 -48 -13 30 c-17 38 -17 68 -2 83 15
15 20 15 44 -2z m-9899 -58 c-3 -7 -5 -2 -5 12 0 14 2 19 5 13 2 -7 2 -19 0
-25z"/>
<path d="M3252 1480 c0 -19 2 -27 5 -17 2 9 2 25 0 35 -3 9 -5 1 -5 -18z"/>
<path d="M6322 1280 c0 -19 2 -27 5 -17 2 9 2 25 0 35 -3 9 -5 1 -5 -18z"/>
<path d="M8421 1054 c0 -11 3 -14 6 -6 3 7 2 16 -1 19 -3 4 -6 -2 -5 -13z"/>
</g>
</svg>
